<svg width="90" height="90" viewBox="0 0 90 90" fill="none" xmlns="http://www.w3.org/2000/svg">
<path d="M30 67.5H35.625V60H43.125V54.375H35.625V46.875H30V54.375H22.5V60H30V67.5ZM48.75 64.6875H67.5V59.0625H48.75V64.6875ZM48.75 55.3125H67.5V49.6875H48.75V55.3125ZM52.875 41.0625L58.125 35.8125L63.375 41.0625L67.3125 37.125L62.0625 31.6875L67.3125 26.4375L63.375 22.5L58.125 27.75L52.875 22.5L48.9375 26.4375L54.1875 31.6875L48.9375 37.125L52.875 41.0625ZM23.4375 34.5H42.1875V28.875H23.4375V34.5ZM18.75 78.75C16.6875 78.75 14.9219 78.0156 13.4531 76.5469C11.9844 75.0781 11.25 73.3125 11.25 71.25V18.75C11.25 16.6875 11.9844 14.9219 13.4531 13.4531C14.9219 11.9844 16.6875 11.25 18.75 11.25H71.25C73.3125 11.25 75.0781 11.9844 76.5469 13.4531C78.0156 14.9219 78.75 16.6875 78.75 18.75V71.25C78.75 73.3125 78.0156 75.0781 76.5469 76.5469C75.0781 78.0156 73.3125 78.75 71.25 78.75H18.75ZM18.75 71.25H71.25V18.75H18.75V71.25Z" fill="#E40C2B"/>
</svg>
